<?xml version="1.0" standalone="no"?>
<!DOCTYPE svg>
<svg version="1.0" xmlns="http://www.w3.org/2000/svg"
 width="512.000000pt" height="512.000000pt" viewBox="0 0 512.000000 512.000000"
 preserveAspectRatio="xMidYMid meet">

<g transform="translate(0.000000,512.000000) scale(0.100000,-0.100000)"
fill="#e94820" stroke="none">
<path d="M4403 4912 c-28 -10 -66 -32 -85 -48 -19 -17 -163 -169 -320 -340
-485 -525 -1554 -1599 -1592 -1599 -8 0 -211 182 -452 405 -465 429 -876 807
-983 903 -109 96 -216 132 -324 107 -73 -18 -126 -51 -189 -119 -29 -32 -74
-69 -98 -81 -106 -54 -245 -188 -312 -300 -67 -113 -60 -204 25 -345 211 -347
496 -654 1176 -1266 l204 -183 -44 -39 c-24 -22 -132 -116 -239 -210 -465
-406 -594 -559 -645 -762 -40 -160 25 -323 197 -494 82 -83 226 -197 266 -212
55 -21 117 -28 162 -17 333 76 683 299 1096 700 67 65 125 118 130 118 6 0 34
-25 64 -56 74 -75 327 -307 420 -384 228 -191 478 -358 690 -463 56 -28 75
-32 140 -32 64 0 83 5 130 30 30 16 85 35 122 41 85 15 144 49 200 115 23 29
59 66 78 83 136 123 155 157 155 286 0 144 -13 169 -209 390 -178 200 -340
374 -633 676 l-262 270 177 169 c864 823 1187 1172 1447 1565 206 312 246 407
214 510 -6 19 -14 69 -19 111 -10 89 -33 139 -87 190 -75 71 -274 229 -316
251 -97 49 -197 60 -284 30z"/>
</g>
</svg>
